<svg width="31" height="31" viewBox="0 0 31 31" fill="none" xmlns="http://www.w3.org/2000/svg">
<g clip-path="url(#clip0_1_2)">
<path d="M13.95 11.3625C13.698 11.3625 13.4564 11.4626 13.2782 11.6407C13.1001 11.8189 13 12.0605 13 12.3125V26.625C13 27.15 13.425 27.575 13.95 27.575C14.1875 27.575 14.3875 27.5 14.55 27.375L16.9375 25.4375L19.0125 29.9625C19.175 30.3 19.5125 30.5 19.875 30.5C20.0125 30.5 20.15 30.5 20.2875 30.4L23.7375 28.8C24.2125 28.575 24.4375 28 24.1875 27.5375L22.1 23L25.1125 22.4375C25.3125 22.375 25.5 22.2875 25.65 22.1125C25.9875 21.7125 25.9375 21.125 25.5 20.7625L14.575 11.575L14.5625 11.5875C14.4 11.45 14.1875 11.3625 13.95 11.3625ZM19.25 13V10.5H25.5V13H19.25ZM17.7875 6.45L21.325 2.9125L23.0875 4.675L19.55 8.2125L17.7875 6.45ZM13 0.5H15.5V6.75H13V0.5ZM5.4125 18.825L8.95 15.2875L10.7125 17.05L7.175 20.5875L5.4125 18.825ZM5.4125 4.675L7.175 2.9125L10.7125 6.45L8.95 8.2125L5.4125 4.675ZM9.25 13H3V10.5H9.25V13Z" fill="black"/>
</g>
<defs>
<clipPath id="clip0_1_2">
<rect width="30" height="30" fill="white" transform="translate(0.5 0.5)"/>
</clipPath>
</defs>
</svg>
