<svg width="160" height="160" viewBox="0 0 160 160" fill="none" xmlns="http://www.w3.org/2000/svg">
<circle cx="80" cy="80" r="80" fill="white"/>
<path d="M25.6177 87V72.4545H28.693V84.4645H34.9288V87H25.6177ZM41.8801 87.2131C40.758 87.2131 39.7921 86.9858 38.9824 86.5312C38.1775 86.072 37.5572 85.4233 37.1216 84.5852C36.686 83.7424 36.4682 82.7457 36.4682 81.5952C36.4682 80.473 36.686 79.4882 37.1216 78.6406C37.5572 77.7931 38.1704 77.1326 38.9611 76.6591C39.7566 76.1856 40.6893 75.9489 41.7594 75.9489C42.4791 75.9489 43.1491 76.0649 43.7694 76.2969C44.3944 76.5241 44.9389 76.8674 45.4029 77.3267C45.8716 77.786 46.2362 78.3636 46.4966 79.0597C46.757 79.7509 46.8873 80.5606 46.8873 81.4886V82.3196H37.6756V80.4446H44.0392C44.0392 80.009 43.9445 79.6231 43.7551 79.2869C43.5658 78.9508 43.303 78.688 42.9668 78.4986C42.6354 78.3045 42.2495 78.2074 41.8091 78.2074C41.3498 78.2074 40.9426 78.3139 40.5875 78.527C40.2372 78.7353 39.9625 79.017 39.7637 79.3722C39.5648 79.7225 39.463 80.1132 39.4583 80.544V82.3267C39.4583 82.8665 39.5577 83.3329 39.7566 83.7259C39.9602 84.1188 40.2466 84.4219 40.6159 84.6349C40.9853 84.848 41.4232 84.9545 41.9299 84.9545C42.266 84.9545 42.5738 84.9072 42.8532 84.8125C43.1325 84.7178 43.3716 84.5758 43.5705 84.3864C43.7694 84.197 43.9209 83.965 44.025 83.6903L46.8233 83.875C46.6813 84.5473 46.3901 85.1345 45.9498 85.6364C45.5141 86.1335 44.9507 86.5218 44.2594 86.8011C43.5729 87.0758 42.7798 87.2131 41.8801 87.2131ZM51.9725 87.206C51.2765 87.206 50.6562 87.0852 50.1117 86.8438C49.5672 86.5975 49.1363 86.2353 48.8191 85.7571C48.5066 85.2741 48.3503 84.6728 48.3503 83.9531C48.3503 83.3471 48.4616 82.8381 48.6841 82.4261C48.9067 82.0142 49.2097 81.6828 49.5932 81.4318C49.9767 81.1809 50.4123 80.9915 50.9 80.8636C51.3925 80.7358 51.9086 80.6458 52.4483 80.5938C53.0828 80.5275 53.5942 80.4659 53.9824 80.4091C54.3707 80.3475 54.6524 80.2576 54.8276 80.1392C55.0028 80.0208 55.0904 79.8456 55.0904 79.6136V79.571C55.0904 79.1212 54.9483 78.7732 54.6642 78.527C54.3849 78.2808 53.9872 78.1577 53.4711 78.1577C52.9266 78.1577 52.4933 78.2784 52.1713 78.5199C51.8494 78.7566 51.6363 79.0549 51.5321 79.4148L48.7338 79.1875C48.8759 78.5246 49.1552 77.9517 49.5719 77.4688C49.9886 76.9811 50.526 76.607 51.1841 76.3466C51.847 76.0814 52.6141 75.9489 53.4853 75.9489C54.0913 75.9489 54.6713 76.0199 55.2253 76.1619C55.784 76.304 56.2788 76.5241 56.7097 76.8224C57.1453 77.1207 57.4886 77.5043 57.7395 77.973C57.9905 78.437 58.1159 78.9934 58.1159 79.642V87H55.2466V85.4872H55.1614C54.9862 85.8281 54.7518 86.1288 54.4583 86.3892C54.1647 86.6449 53.812 86.8461 53.4 86.9929C52.9881 87.1349 52.5123 87.206 51.9725 87.206ZM52.839 85.1179C53.284 85.1179 53.677 85.0303 54.0179 84.8551C54.3588 84.6752 54.6264 84.4337 54.8205 84.1307C55.0146 83.8277 55.1117 83.4844 55.1117 83.1009V81.9432C55.017 82.0047 54.8868 82.0616 54.7211 82.1136C54.5601 82.161 54.3778 82.206 54.1742 82.2486C53.9706 82.2865 53.767 82.322 53.5634 82.3551C53.3598 82.3835 53.1751 82.4096 53.0094 82.4332C52.6543 82.4853 52.3442 82.5682 52.079 82.6818C51.8139 82.7955 51.6079 82.9493 51.4611 83.1435C51.3143 83.3329 51.2409 83.5696 51.2409 83.8537C51.2409 84.2656 51.3901 84.5805 51.6884 84.7983C51.9914 85.0114 52.3749 85.1179 52.839 85.1179ZM60.4632 87V76.0909H63.3965V77.9943H63.5101C63.709 77.3172 64.0428 76.8059 64.5115 76.4602C64.9803 76.1098 65.5201 75.9347 66.1309 75.9347C66.2824 75.9347 66.4457 75.9441 66.6209 75.9631C66.7961 75.982 66.95 76.008 67.0826 76.0412V78.7259C66.9405 78.6832 66.744 78.6454 66.4931 78.6122C66.2421 78.5791 66.0125 78.5625 65.8042 78.5625C65.3591 78.5625 64.9614 78.6596 64.611 78.8537C64.2653 79.0431 63.9907 79.3082 63.7871 79.6491C63.5882 79.9901 63.4888 80.383 63.4888 80.8281V87H60.4632ZM71.6724 80.6932V87H68.6468V76.0909H71.5304V78.0156H71.6582C71.8997 77.3812 72.3045 76.8793 72.8727 76.5099C73.4409 76.1359 74.1298 75.9489 74.9395 75.9489C75.697 75.9489 76.3575 76.1146 76.921 76.446C77.4844 76.7775 77.9224 77.2509 78.2349 77.8665C78.5474 78.4773 78.7037 79.2064 78.7037 80.054V87H75.6781V80.5938C75.6828 79.9261 75.5124 79.4053 75.1667 79.0312C74.8211 78.6525 74.3452 78.4631 73.7392 78.4631C73.332 78.4631 72.9721 78.5507 72.6596 78.7259C72.3519 78.901 72.1104 79.1567 71.9352 79.4929C71.7647 79.8243 71.6771 80.2244 71.6724 80.6932ZM85.7172 87V76.0909H88.6007V78.0156H88.7285C88.9558 77.3764 89.3346 76.8722 89.8649 76.5028C90.3952 76.1335 91.0297 75.9489 91.7683 75.9489C92.5164 75.9489 93.1532 76.1359 93.6788 76.5099C94.2044 76.8793 94.5547 77.3812 94.7299 78.0156H94.8436C95.0661 77.3906 95.4686 76.8911 96.051 76.517C96.6381 76.1383 97.3317 75.9489 98.1319 75.9489C99.1499 75.9489 99.9761 76.2732 100.611 76.9219C101.25 77.5658 101.569 78.4796 101.569 79.6634V87H98.551V80.2599C98.551 79.6539 98.39 79.1993 98.068 78.8963C97.746 78.5933 97.3436 78.4418 96.8606 78.4418C96.3114 78.4418 95.8829 78.617 95.5751 78.9673C95.2673 79.313 95.1135 79.7699 95.1135 80.3381V87H92.1802V80.196C92.1802 79.661 92.0263 79.2348 91.7186 78.9176C91.4155 78.6004 91.0154 78.4418 90.5183 78.4418C90.1821 78.4418 89.8791 78.527 89.6092 78.6974C89.344 78.8632 89.1333 79.0975 88.9771 79.4006C88.8208 79.6989 88.7427 80.0492 88.7427 80.4517V87H85.7172ZM108.888 87.2131C107.785 87.2131 106.831 86.9787 106.026 86.5099C105.226 86.0365 104.608 85.3783 104.172 84.5355C103.737 83.688 103.519 82.7055 103.519 81.5881C103.519 80.4612 103.737 79.4763 104.172 78.6335C104.608 77.786 105.226 77.1278 106.026 76.6591C106.831 76.1856 107.785 75.9489 108.888 75.9489C109.992 75.9489 110.943 76.1856 111.743 76.6591C112.548 77.1278 113.169 77.786 113.604 78.6335C114.04 79.4763 114.258 80.4612 114.258 81.5881C114.258 82.7055 114.04 83.688 113.604 84.5355C113.169 85.3783 112.548 86.0365 111.743 86.5099C110.943 86.9787 109.992 87.2131 108.888 87.2131ZM108.903 84.8693C109.404 84.8693 109.823 84.7273 110.16 84.4432C110.496 84.1544 110.749 83.7614 110.92 83.2642C111.095 82.767 111.182 82.2012 111.182 81.5668C111.182 80.9323 111.095 80.3665 110.92 79.8693C110.749 79.3722 110.496 78.9792 110.16 78.6903C109.823 78.4015 109.404 78.2571 108.903 78.2571C108.396 78.2571 107.97 78.4015 107.624 78.6903C107.283 78.9792 107.025 79.3722 106.85 79.8693C106.68 80.3665 106.594 80.9323 106.594 81.5668C106.594 82.2012 106.68 82.767 106.85 83.2642C107.025 83.7614 107.283 84.1544 107.624 84.4432C107.97 84.7273 108.396 84.8693 108.903 84.8693ZM116.225 87V76.0909H119.158V77.9943H119.272C119.471 77.3172 119.805 76.8059 120.273 76.4602C120.742 76.1098 121.282 75.9347 121.893 75.9347C122.044 75.9347 122.207 75.9441 122.383 75.9631C122.558 75.982 122.712 76.008 122.844 76.0412V78.7259C122.702 78.6832 122.506 78.6454 122.255 78.6122C122.004 78.5791 121.774 78.5625 121.566 78.5625C121.121 78.5625 120.723 78.6596 120.373 78.8537C120.027 79.0431 119.752 79.3082 119.549 79.6491C119.35 79.9901 119.251 80.383 119.251 80.8281V87H116.225ZM128.872 87.2131C127.75 87.2131 126.784 86.9858 125.975 86.5312C125.17 86.072 124.549 85.4233 124.114 84.5852C123.678 83.7424 123.46 82.7457 123.46 81.5952C123.46 80.473 123.678 79.4882 124.114 78.6406C124.549 77.7931 125.163 77.1326 125.953 76.6591C126.749 76.1856 127.682 75.9489 128.752 75.9489C129.471 75.9489 130.141 76.0649 130.762 76.2969C131.387 76.5241 131.931 76.8674 132.395 77.3267C132.864 77.786 133.228 78.3636 133.489 79.0597C133.749 79.7509 133.879 80.5606 133.879 81.4886V82.3196H124.668V80.4446H131.031C131.031 80.009 130.937 79.6231 130.747 79.2869C130.558 78.9508 130.295 78.688 129.959 78.4986C129.628 78.3045 129.242 78.2074 128.801 78.2074C128.342 78.2074 127.935 78.3139 127.58 78.527C127.229 78.7353 126.955 79.017 126.756 79.3722C126.557 79.7225 126.455 80.1132 126.45 80.544V82.3267C126.45 82.8665 126.55 83.3329 126.749 83.7259C126.952 84.1188 127.239 84.4219 127.608 84.6349C127.977 84.848 128.415 84.9545 128.922 84.9545C129.258 84.9545 129.566 84.9072 129.845 84.8125C130.125 84.7178 130.364 84.5758 130.563 84.3864C130.762 84.197 130.913 83.965 131.017 83.6903L133.816 83.875C133.673 84.5473 133.382 85.1345 132.942 85.6364C132.506 86.1335 131.943 86.5218 131.252 86.8011C130.565 87.0758 129.772 87.2131 128.872 87.2131Z" fill="black"/>
</svg>
