<svg width="101" height="49" viewBox="0 0 101 49" fill="none" xmlns="http://www.w3.org/2000/svg">
<path d="M35.2159 18.5455V22.1818H24.7045V18.5455H35.2159ZM27.0909 14.3636H31.9318V30.6364C31.9318 31.0833 32 31.4318 32.1364 31.6818C32.2727 31.9242 32.4621 32.0947 32.7045 32.1932C32.9545 32.2917 33.2424 32.3409 33.5682 32.3409C33.7955 32.3409 34.0227 32.322 34.25 32.2841C34.4773 32.2386 34.6515 32.2045 34.7727 32.1818L35.5341 35.7841C35.2917 35.8598 34.9508 35.947 34.5114 36.0455C34.072 36.1515 33.5379 36.2159 32.9091 36.2386C31.7424 36.2841 30.7197 36.1288 29.8409 35.7727C28.9697 35.4167 28.2917 34.8636 27.8068 34.1136C27.322 33.3636 27.0833 32.4167 27.0909 31.2727V14.3636ZM41.358 42.5455C40.7443 42.5455 40.1686 42.4962 39.6307 42.3977C39.1004 42.3068 38.661 42.1894 38.3125 42.0455L39.4034 38.4318C39.9716 38.6061 40.483 38.7008 40.9375 38.7159C41.3996 38.7311 41.7973 38.625 42.1307 38.3977C42.4716 38.1705 42.7481 37.7841 42.9602 37.2386L43.2443 36.5L36.983 18.5455H42.0739L45.6875 31.3636H45.8693L49.517 18.5455H54.642L47.858 37.8864C47.5322 38.8258 47.089 39.6439 46.5284 40.3409C45.9754 41.0455 45.2746 41.5871 44.4261 41.9659C43.5777 42.3523 42.5549 42.5455 41.358 42.5455ZM61.9602 12.7273V36H57.1193V12.7273H61.9602ZM73.7926 36.3409C71.9972 36.3409 70.4517 35.9773 69.1562 35.25C67.8684 34.5152 66.8759 33.4773 66.179 32.1364C65.482 30.7879 65.1335 29.1932 65.1335 27.3523C65.1335 25.5568 65.482 23.9811 66.179 22.625C66.8759 21.2689 67.857 20.2121 69.1222 19.4545C70.3949 18.697 71.8873 18.3182 73.5994 18.3182C74.7509 18.3182 75.8229 18.5038 76.8153 18.875C77.8153 19.2386 78.6866 19.7879 79.429 20.5227C80.179 21.2576 80.7623 22.1818 81.179 23.2955C81.5956 24.4015 81.804 25.697 81.804 27.1818V28.5114H67.0653V25.5114H77.2472C77.2472 24.8144 77.0956 24.197 76.7926 23.6591C76.4896 23.1212 76.0691 22.7008 75.5312 22.3977C75.0009 22.0871 74.3835 21.9318 73.679 21.9318C72.9441 21.9318 72.2926 22.1023 71.7244 22.4432C71.1638 22.7765 70.7244 23.2273 70.4062 23.7955C70.0881 24.3561 69.9252 24.9811 69.9176 25.6705V28.5227C69.9176 29.3864 70.0767 30.1326 70.3949 30.7614C70.7206 31.3902 71.179 31.875 71.7699 32.2159C72.3608 32.5568 73.0616 32.7273 73.8722 32.7273C74.41 32.7273 74.9025 32.6515 75.3494 32.5C75.7964 32.3485 76.179 32.1212 76.4972 31.8182C76.8153 31.5152 77.0578 31.1439 77.2244 30.7045L81.7017 31C81.4744 32.0758 81.0085 33.0152 80.304 33.8182C79.607 34.6136 78.7055 35.2348 77.5994 35.6818C76.5009 36.1212 75.232 36.3409 73.7926 36.3409ZM99.4858 23.5227L95.054 23.7955C94.9782 23.4167 94.8153 23.0758 94.5653 22.7727C94.3153 22.4621 93.9858 22.2159 93.5767 22.0341C93.1752 21.8447 92.6941 21.75 92.1335 21.75C91.3835 21.75 90.7509 21.9091 90.2358 22.2273C89.7206 22.5379 89.4631 22.9545 89.4631 23.4773C89.4631 23.8939 89.6297 24.2462 89.9631 24.5341C90.2964 24.822 90.8684 25.053 91.679 25.2273L94.8381 25.8636C96.535 26.2121 97.8002 26.7727 98.6335 27.5455C99.4669 28.3182 99.8835 29.3333 99.8835 30.5909C99.8835 31.7348 99.5464 32.7386 98.8722 33.6023C98.2055 34.4659 97.2888 35.1402 96.1222 35.625C94.9631 36.1023 93.6259 36.3409 92.1108 36.3409C89.8002 36.3409 87.9593 35.8598 86.5881 34.8977C85.2244 33.928 84.4252 32.6098 84.1903 30.9432L88.9517 30.6932C89.0956 31.3977 89.4441 31.9356 89.9972 32.3068C90.5502 32.6705 91.2585 32.8523 92.1222 32.8523C92.9706 32.8523 93.6525 32.6894 94.1676 32.3636C94.6903 32.0303 94.9555 31.6023 94.9631 31.0795C94.9555 30.6402 94.7699 30.2803 94.4062 30C94.0426 29.7121 93.482 29.4924 92.7244 29.3409L89.7017 28.7386C87.9972 28.3977 86.7282 27.8068 85.8949 26.9659C85.0691 26.125 84.6562 25.053 84.6562 23.75C84.6562 22.6288 84.9593 21.6629 85.5653 20.8523C86.179 20.0417 87.0388 19.4167 88.1449 18.9773C89.2585 18.5379 90.5616 18.3182 92.054 18.3182C94.2585 18.3182 95.9934 18.7841 97.2585 19.7159C98.5313 20.6477 99.2737 21.9167 99.4858 23.5227Z" fill="white"/>
<path d="M12.3 39.36C11.1667 39.36 10.06 39.2 8.98 38.88C7.9 38.56 6.76 38.06 5.56 37.38L4.04 39H3.08L2.32 28.86L3.6 28.62C4.41333 31.7 5.49333 33.9333 6.84 35.32C8.18667 36.7067 9.96667 37.4 12.18 37.4C13.9533 37.4 15.3533 36.98 16.38 36.14C17.42 35.2867 17.94 34.1267 17.94 32.66C17.94 31.6067 17.58 30.6533 16.86 29.8C16.14 28.9333 14.9467 28.0467 13.28 27.14L10.16 25.54C7.62667 24.2067 5.79333 22.8333 4.66 21.42C3.54 20.0067 2.98 18.36 2.98 16.48C2.98 14.88 3.38667 13.4533 4.2 12.2C5.02667 10.9333 6.14667 9.94 7.56 9.22C8.98667 8.48667 10.5933 8.12 12.38 8.12C14.8333 8.12 16.96 8.94 18.76 10.58L19.88 8.5H20.9L21.26 17.24H19.92C19.2933 14.8267 18.3733 13.0333 17.16 11.86C15.96 10.6867 14.4267 10.1 12.56 10.1C11.12 10.1 9.98667 10.4733 9.16 11.22C8.33333 11.9667 7.92 12.9933 7.92 14.3C7.92 15.4333 8.30667 16.4467 9.08 17.34C9.85333 18.22 11.1667 19.14 13.02 20.1L16.06 21.72C18.26 22.8667 19.8467 24.1333 20.82 25.52C21.7933 26.9067 22.28 28.5267 22.28 30.38C22.28 32.0867 21.84 33.62 20.96 34.98C20.08 36.3267 18.8867 37.3933 17.38 38.18C15.8733 38.9667 14.18 39.36 12.3 39.36Z" fill="white"/>
</svg>
